<svg xmlns="http://www.w3.org/2000/svg" width="256" height="256" viewBox="0 0 100 100"><rect width="100" height="100" rx="20" fill="#aad9ff"></rect><path fill="#000000" d="M15.29 68.77L15.29 68.77Q9.11 68.77 9.11 61.49L9.11 61.49Q9.11 58.21 10.23 54.65Q11.36 51.09 13.51 47.47L13.51 47.47Q15.71 43.81 18.50 40.89Q21.28 37.97 24.45 35.94Q27.62 33.91 31.08 32.83Q34.54 31.75 38.08 31.75L38.08 31.75Q40.53 31.75 42.42 32.23Q44.31 32.72 45.60 33.65Q46.89 34.58 47.56 35.94Q48.24 37.30 48.24 39.05L48.24 39.05Q48.24 41.45 47.11 43.55Q45.99 45.65 44.04 47.21Q42.08 48.78 39.44 49.70Q36.80 50.62 33.79 50.64L33.79 50.64L33.79 50.39Q36.44 49.94 38.58 48.90Q40.71 47.85 42.21 46.32Q43.70 44.78 44.50 42.80Q45.29 40.82 45.29 38.53L45.29 38.53Q45.29 36.22 44.41 34.86Q43.52 33.50 41.57 32.96L41.57 32.96Q40.35 33.48 39.17 34.45Q37.99 35.41 37.21 36.62L37.21 36.62Q36.96 36.98 36.74 37.38Q36.51 37.77 36.23 38.38Q35.95 38.98 35.58 39.89Q35.21 40.80 34.69 42.18Q34.18 43.56 33.46 45.51Q32.74 47.45 31.77 50.12L31.77 50.12Q30.04 54.89 28.18 58.40Q26.31 61.92 24.27 64.22Q22.23 66.52 19.99 67.64Q17.76 68.77 15.29 68.77ZM32.40 40.26L32.40 40.26Q33.17 38.96 34.13 37.80Q35.10 36.65 36.16 35.68Q37.23 34.72 38.39 33.99Q39.54 33.26 40.71 32.78L40.71 32.78Q40.17 32.69 39.58 32.65Q38.98 32.60 38.31 32.60L38.31 32.60Q34.94 32.60 31.59 33.66Q28.25 34.72 25.17 36.69Q22.09 38.67 19.39 41.48Q16.68 44.28 14.57 47.79L14.57 47.79Q12.50 51.20 11.43 54.69Q10.37 58.19 10.37 61.51L10.37 61.51Q10.37 64.81 11.51 66.32Q12.66 67.82 15.11 67.82L15.11 67.82Q16.27 67.82 17.29 67.53Q18.30 67.24 19.23 66.56Q20.16 65.89 21.04 64.81Q21.91 63.73 22.82 62.14Q23.73 60.55 24.69 58.41Q25.64 56.28 26.74 53.52L26.74 53.52Q27.71 51.04 28.44 49.21Q29.17 47.38 29.71 46.06Q30.25 44.73 30.63 43.83Q31.01 42.94 31.32 42.30Q31.64 41.66 31.89 41.18Q32.13 40.71 32.40 40.26ZM74.56 40.47L74.56 40.47Q75.30 39.10 76.39 37.83Q77.48 36.56 78.78 35.46L78.78 35.46Q76.81 35.28 74.84 34.93Q72.88 34.58 70.99 34.24Q69.10 33.91 67.31 33.66Q65.51 33.41 63.87 33.41L63.87 33.41Q61.78 33.41 60.35 33.84Q58.93 34.27 58.06 34.96Q57.20 35.66 56.82 36.52Q56.44 37.39 56.44 38.29L56.44 38.29Q56.44 39.14 56.75 39.92Q57.06 40.69 57.67 41.29Q58.28 41.88 59.18 42.24Q60.07 42.60 61.26 42.60L61.26 42.60Q61.94 42.60 62.70 42.49Q63.47 42.37 64.24 42.16Q65.02 41.95 65.76 41.66Q66.50 41.36 67.10 41.00L67.10 41.00L67.55 41.54Q66.81 41.97 66.00 42.30Q65.19 42.62 64.38 42.86Q63.56 43.09 62.74 43.22Q61.92 43.34 61.17 43.34L61.17 43.34Q59.83 43.34 58.78 42.95Q57.74 42.55 57.01 41.87Q56.28 41.18 55.90 40.26Q55.51 39.34 55.51 38.29L55.51 38.29Q55.51 36.87 56.19 35.67Q56.86 34.47 58.18 33.59Q59.49 32.72 61.46 32.22Q63.42 31.73 65.98 31.73L65.98 31.73Q67.89 31.73 69.81 31.98Q71.73 32.22 73.69 32.53Q75.64 32.83 77.64 33.10Q79.64 33.37 81.73 33.44L81.73 33.44Q83.52 32.42 85.42 31.83Q87.32 31.23 89.23 31.23L89.23 31.23Q90.19 31.23 90.54 31.41Q90.89 31.59 90.89 32.09L90.89 32.09Q90.89 32.83 90.19 33.47Q89.50 34.11 88.26 34.58Q87.03 35.05 85.36 35.32Q83.70 35.59 81.75 35.59L81.75 35.59Q81.43 35.59 81.11 35.59Q80.78 35.59 80.47 35.57L80.47 35.57Q79.84 36.20 79.41 36.85L79.41 36.85Q79.21 37.14 79.02 37.51Q78.83 37.88 78.57 38.47Q78.31 39.05 77.98 39.89Q77.64 40.73 77.18 41.99Q76.72 43.25 76.08 44.97Q75.44 46.69 74.61 49.00L74.61 49.00L81.16 49.00L81.16 49.90L74.29 49.90Q72.54 54.84 70.54 58.41Q68.54 61.98 66.32 64.29Q64.09 66.59 61.69 67.68Q59.29 68.77 56.73 68.77L56.73 68.77Q55.06 68.77 53.64 68.34Q52.21 67.91 51.17 67.07Q50.12 66.23 49.52 64.99Q48.91 63.76 48.91 62.14L48.91 62.14Q48.91 61.06 49.17 60.07Q49.43 59.09 49.89 58.33Q50.35 57.58 50.97 57.12Q51.58 56.66 52.30 56.66L52.30 56.66Q52.77 56.66 53.11 56.90Q53.45 57.13 53.45 57.76L53.45 57.76Q53.45 58.28 53.19 58.58Q52.93 58.88 52.55 59.10Q52.17 59.31 51.71 59.52Q51.25 59.74 50.86 60.08Q50.48 60.43 50.22 60.99Q49.97 61.56 49.97 62.48L49.97 62.48Q49.97 63.76 50.44 64.77Q50.91 65.78 51.79 66.49Q52.66 67.19 53.93 67.58Q55.20 67.96 56.79 67.96L56.79 67.96Q57.98 67.96 59.04 67.71Q60.10 67.46 61.08 66.85Q62.07 66.23 63.02 65.18Q63.96 64.14 64.94 62.53Q65.91 60.93 66.96 58.70Q68.00 56.48 69.19 53.52L69.19 53.52Q69.60 52.50 69.95 51.61Q70.29 50.71 70.61 49.90L70.61 49.90L64.54 49.90L64.54 49.00L70.94 49.00Q71.84 46.75 72.42 45.32Q72.99 43.88 73.38 42.96Q73.77 42.04 74.03 41.49Q74.29 40.94 74.56 40.47ZM89.12 31.86L89.12 31.86Q87.70 31.86 86.24 32.29Q84.78 32.72 83.43 33.44L83.43 33.44Q84.71 33.41 85.92 33.28Q87.12 33.14 88.05 32.96Q88.98 32.78 89.55 32.57Q90.13 32.36 90.13 32.13L90.13 32.13Q90.13 31.86 89.12 31.86Z"></path></svg>